<?xml version="1.0" encoding="UTF-8"?>
<!DOCTYPE svg PUBLIC "-//W3C//DTD SVG 1.1//EN" "http://www.w3.org/Graphics/SVG/1.1/DTD/svg11.dtd">
<!-- Creator: CorelDRAW X6 -->
<svg xmlns="http://www.w3.org/2000/svg" xml:space="preserve" width="520.263mm" height="429.408mm" version="1.1" style="shape-rendering:geometricPrecision; text-rendering:geometricPrecision; image-rendering:optimizeQuality; fill-rule:evenodd; clip-rule:evenodd"
viewBox="0 0 586522 484095"
 xmlns:xlink="http://www.w3.org/1999/xlink">
 <defs>
  <style type="text/css">
   <![CDATA[
    .fil2 {fill:#C72127}
    .fil1 {fill:#004A64;fill-rule:nonzero}
    .fil0 {fill:#C72127;fill-rule:nonzero}
    .fil3 {fill:#FDB913;fill-rule:nonzero}
    .fil4 {fill:white;fill-rule:nonzero}
    .fil5 {fill:url(#id0);fill-opacity:0.501961}
   ]]>
  </style>
  <linearGradient id="id0" gradientUnits="userSpaceOnUse" x1="286655" y1="-1.39843e+006" x2="2.44384e+006" y2="-1.39843e+006">
   <stop offset="0" style="stop-color:white"/>
   <stop offset="0.509804" style="stop-color:#F18F92"/>
   <stop offset="1" style="stop-color:#E31E24"/>
  </linearGradient>
 </defs>
 <g id="Livello_x0020_1">
  <metadata id="CorelCorpID_0Corel-Layer"/>
  <g id="_926529552">
   <path class="fil0" d="M98217 398078c0,-3617 -860,-8093 -11204,-8093l-9045 0 0 16538 9313 0c10679,0 10850,84 10850,-8445l87 0zm-10850 17747l-9305 0 0 17569c-2329,0 -8188,430 -10162,-1117 -1298,-1125 -1555,-3100 -1555,-7320l0 -36098c0,-4217 -525,-7758 4991,-8264 1298,-97 3024,-97 5345,-97l10076 0c21023,0 23349,10003 23349,17580 0,7328 -1469,17747 -22738,17747z"/>
   <path class="fil0" d="M117252 425041l0 -33858c2242,0 7834,-344 9819,1204 1298,1039 1547,2938 1547,6984l0 34028c-10593,0 -11366,-430 -11366,-8358zm5602 -38332c-4141,0 -7931,-1298 -7931,-6376 0,-5258 3616,-6373 7931,-6373 4130,0 7577,1201 7577,6373 0,5077 -3446,6376 -7577,6376z"/>
   <path class="fil0" d="M157134 433483c-17663,0 -22397,-10076 -22397,-21193 0,-11023 4915,-21193 22224,-21193l12922 0c0,1899 344,6459 -1212,8015 -1031,1031 -2835,1298 -6806,1298l-5161 0c-1642,0 -7931,-438 -9219,1031 -1555,1545 -1201,9045 -1201,10763 0,7320 2405,12235 10506,12235l4818 0c7758,0 8275,514 8275,9045l-12748 0z"/>
   <path class="fil0" d="M194427 433483c-17663,0 -22397,-10076 -22397,-21193 0,-11023 4915,-21193 22224,-21193l12922 0c0,1899 344,6459 -1204,8015 -1031,1031 -2843,1298 -6803,1298l-5172 0c-1642,0 -7931,-438 -9219,1031 -1555,1545 -1201,9045 -1201,10763 0,7320 2405,12235 10506,12235l4818 0c7758,0 8274,514 8274,9045l-12748 0z"/>
   <path class="fil0" d="M242408 412203c0,-7233 -1899,-12318 -10774,-12318 -10850,0 -10766,87 -10766,12318 0,7414 2061,12405 10679,12405 10936,0 10687,-84 10687,-12405l173 0zm-10860 21710c-17739,0 -22216,-10687 -22216,-21710 0,-10936 4726,-21623 22302,-21623 17320,0 22310,10687 22310,21623 0,11204 -4991,21710 -22397,21710z"/>
   <path class="fil0" d="M260404 425041l0 -50136c2242,0 7844,-430 9819,1117 1298,1039 1642,3024 1642,7071l0 50307c-10687,0 -11461,-430 -11461,-8358z"/>
   <path class="fil0" d="M311398 412203c0,-7233 -1899,-12318 -10763,-12318 -10860,0 -10774,87 -10774,12318 0,7414 2069,12405 10687,12405 10936,0 10679,-84 10679,-12405l170 0zm-10850 21710c-17750,0 -22224,-10687 -22224,-21710 0,-10936 4734,-21623 22310,-21623 17309,0 22311,10687 22311,21623 0,11204 -5002,21710 -22397,21710z"/>
   <path class="fil0" d="M378754 433570c-20763,0 -25667,-12491 -25667,-26614 0,-14217 4999,-26625 25667,-26625l17406 0c0,1985 430,6719 -1117,8445 -1039,1031 -3111,1204 -7157,1204l-9132 0c-2326,0 -10333,-517 -12148,1642 -2061,2405 -1631,12662 -1631,15334 0,10249 2415,16965 13779,16965l8618 0c8264,0 8864,517 8864,9649l-17482 0z"/>
   <path class="fil0" d="M432163 412203c0,-7233 -1899,-12318 -10774,-12318 -10850,0 -10766,87 -10766,12318 0,7414 2061,12405 10679,12405 10944,0 10687,-84 10687,-12405l173 0zm-10860 21710c-17739,0 -22216,-10687 -22216,-21710 0,-10936 4726,-21623 22302,-21623 17320,0 22310,10687 22310,21623 0,11204 -4991,21710 -22397,21710z"/>
   <path class="fil0" d="M474539 390926l0 5345c-430,4390 -3103,4047 -6806,4047 -4485,0 -5686,427 -6029,4304 -173,1469 -87,3281 -87,5429l0 23349c-10687,0 -11461,-344 -11461,-8185l0 -34201c9219,0 9219,430 9219,6116 2156,-3530 6976,-6459 15164,-6202z"/>
   <path class="fil0" d="M508652 412203c0,-7233 -1899,-12318 -10774,-12318 -10850,0 -10763,87 -10763,12318 0,7414 2061,12405 10679,12405 10944,0 10687,-84 10687,-12405l170 0zm-10858 21710c-17742,0 -22216,-10687 -22216,-21710 0,-10936 4723,-21623 22300,-21623 17320,0 22310,10687 22310,21623 0,11204 -4991,21710 -22394,21710z"/>
   <path class="fil1" d="M11880 467433c-1899,0 -3235,-438 -3235,-2700 0,-316 38,-841 97,-1423 219,-2080 1012,-6641 1012,-6641 2700,0 2929,0 2700,3051l-133 2310c133,0 314,0 400,38 1593,181 2443,841 2443,2664 0,2261 -1328,2700 -3284,2700zm-8596 0c-1948,0 -3284,-438 -3284,-2700 0,-316 95,-841 143,-1423 211,-2080 1012,-6641 1012,-6641 2699,0 2929,0 2699,3051l-170 2310c170,0 306,0 449,38 1593,181 2432,841 2432,2664 0,2261 -1336,2700 -3281,2700zm43466 12673l0 -17853 -7806 18472c-1325,3065 -1280,3103 -3673,3103l-2348 0 -9124 -21575 0 21575c-4607,0 -4607,0 -4607,-3722l0 -23568 2518 0c4293,0 4255,-49 5764,3454l6516 15418c306,755 1193,3273 1279,3541l1288 -3541 6603 -15418c1412,-3370 1374,-3454 5134,-3454l3149 0 0 27290c-4693,0 -4693,0 -4693,-3722zm24667 -6335l-6154 0c-5010,0 -5058,0 -5058,3635 0,1994 1688,3149 4877,3149 6335,0 6335,0 6335,-6078l0 -706zm1068 6784c-1020,1680 -3949,3492 -8464,3492 -4696,0 -8513,-2031 -8513,-6603 0,-4025 2616,-7214 9037,-7214l6871 0c0,-3243 -1812,-4436 -5983,-4436l-4428 0c-3368,0 -3368,0 -3368,-3673l7663 0c8596,0 10593,3538 10593,9302l0 12405c-3408,0 -3408,0 -3408,-3273zm15635 -14761c-3855,0 -3855,1060 -3855,5983l0 12053c-4523,0 -4523,0 -4523,-3771l0 -18034c3454,0 3454,0 3454,3013 755,-1507 3016,-3319 7806,-3100 0,3990 0,3855 -2883,3855zm5269 14133l0 -17902c4523,0 4523,0 4523,3722l0 18083c-4523,0 -4523,0 -4523,-3903zm2213 -20382c-2031,0 -3368,-536 -3368,-2748 0,-2215 1336,-2748 3368,-2748 1948,0 3235,533 3235,2748 0,2213 -1288,2748 -3235,2748zm21710 11520c49,0 49,-46 0,-46 87,-2970 -1336,-5756 -5448,-5756 -5764,0 -5897,0 -5897,5851l11345 0c0,0 49,0 0,-49zm0 3673l-11345 0c0,3235 1994,5459 6029,5459l4782 0c3587,0 3587,0 3587,3676l-8196 0c-8599,0 -10812,-5183 -10812,-10993 0,-5802 2261,-11117 10906,-11117 6603,0 9743,4074 9743,9351 0,3625 0,3625 -4696,3625zm8456 5188l0 -26184c4523,0 4523,0 4523,3722l0 26365c-4523,0 -4523,0 -4523,-3903zm24150 -8861c46,0 46,-46 0,-46 84,-2970 -1336,-5756 -5450,-5756 -5762,0 -5897,0 -5897,5851l11347 0c0,0 46,0 0,-49zm0 3673l-11347 0c0,3235 1994,5459 6032,5459l4780 0c3590,0 3590,0 3590,3676l-8199 0c-8596,0 -10812,-5183 -10812,-10993 0,-5802 2261,-11117 10906,-11117 6606,0 9743,4074 9743,9351 0,3625 0,3625 -4693,3625zm35127 5635c-1423,3454 -1423,3454 -4209,3454l-2919 0 -10555 -27293c5010,0 5010,0 6384,3855l7090 19984 7176 -19984c1374,-3855 1374,-3855 6384,-3855l-9351 23839zm25960 -9308c49,0 49,-46 0,-46 87,-2970 -1334,-5756 -5448,-5756 -5764,0 -5897,0 -5897,5851l11345 0c0,0 49,0 0,-49zm0 3673l-11345 0c0,3235 1994,5459 6021,5459l4790 0c3587,0 3587,0 3587,3676l-8196 0c-8599,0 -10812,-5183 -10812,-10993 0,-5802 2261,-11117 10906,-11117 6595,0 9743,4074 9743,9351 0,3625 0,3625 -4696,3625zm23963 5277l0 -8331c0,-3855 -706,-6165 -5315,-6165 -5678,0 -5678,0 -5678,6165l0 12140c-4515,0 -4515,0 -4515,-3809l0 -17950c3454,0 3454,0 3454,3065 755,-1509 3065,-3370 7980,-3370 7128,0 8596,4160 8596,10325l0 11740c-4523,0 -4523,0 -4523,-3809zm16519 -14269l-2126 0 0 11785c0,1423 400,2624 2126,2624 3454,0 3454,0 3454,3846 -7176,400 -10190,-1279 -10190,-6470l0 -11737 -2921 0 49 -2710c3235,0 2873,-87 2873,-2654l0 -3903 4523 0 0 5496 5897 0c0,3722 0,3722 -3684,3722zm14802 46c-3855,0 -3855,1060 -3855,5983l0 12053c-4523,0 -4523,0 -4523,-3771l0 -18034c3454,0 3454,0 3454,3013 752,-1507 3013,-3319 7804,-3100 0,3990 0,3855 -2881,3855zm19313 5272c46,0 46,-46 0,-46 86,-2970 -1336,-5756 -5451,-5756 -5762,0 -5897,0 -5897,5851l11347 0c0,0 46,0 0,-49zm0 3673l-11347 0c0,3235 1996,5459 6032,5459l4780 0c3590,0 3590,0 3590,3676l-8199 0c-8596,0 -10812,-5183 -10812,-10993 0,-5802 2261,-11117 10909,-11117 6603,0 9741,4074 9741,9351 0,3625 0,3625 -4693,3625zm20601 -14217c-219,2080 -1020,6641 -1020,6641 -2702,0 -2929,0 -2702,-3054l135 -2299c-135,0 -316,0 -400,-49 -1596,-181 -2435,-839 -2435,-2662 0,-2213 1325,-2700 3273,-2700 1899,0 3235,487 3235,2700 0,316 -38,849 -87,1423zm-8645 0c-170,2080 -974,6641 -974,6641 -2737,0 -2919,0 -2737,-3054l170 -2299c-170,0 -314,0 -449,-49 -1593,-181 -2432,-839 -2432,-2662 0,-2213 1325,-2700 3330,-2700 1899,0 3224,487 3224,2700 0,316 -46,849 -133,1423zm33228 4964c-5983,0 -5983,0 -5983,7404 0,4379 974,7433 5935,7433 6116,0 6116,0 6116,-7433 0,-4217 -887,-7404 -6067,-7404zm7041 15199c-793,1509 -3186,3408 -8377,3408 -7176,0 -9294,-5269 -9294,-11204 0,-5983 2031,-11212 9256,-11212 4293,0 6470,1499 7403,2967l0 -10898c4477,0 4477,0 4477,3809l0 26271c-3465,0 -3465,0 -3465,-3140zm23038 -9619c49,0 49,-46 0,-46 87,-2970 -1334,-5756 -5448,-5756 -5764,0 -5897,0 -5897,5851l11345 0c0,0 49,0 0,-49zm0 3673l-11345 0c0,3235 1994,5459 6029,5459l4782 0c3587,0 3587,0 3587,3676l-8196 0c-8599,0 -10812,-5183 -10812,-10993 0,-5802 2261,-11117 10906,-11117 6603,0 9743,4074 9743,9351 0,3625 0,3625 -4696,3625zm8456 5188l0 -26184c4523,0 4523,0 4523,3722l0 26365c-4523,0 -4523,0 -4523,-3903zm8994 0l0 -26184c4523,0 4523,0 4523,3722l0 26365c-4523,0 -4523,0 -4523,-3903zm14309 -19316c-181,2039 -974,6641 -974,6641 -2748,0 -2929,0 -2748,-3103l173 -2299c-173,0 -306,0 -441,-46 -1593,-135 -2432,-841 -2432,-2654 0,-2223 1325,-2702 3319,-2702 1910,0 3235,479 3235,2702 0,306 -46,839 -133,1461zm14666 -977l-5497 15467 10993 0 -5496 -15467zm7577 21318l-887 -2443 -13341 0 -879 2443c-982,2832 -982,2873 -5946,2873l9048 -24190c1144,-3103 1231,-3103 4428,-3103l3054 0 10506 27293c-4926,0 -4926,0 -5983,-2873zm23517 -936l0 -8331c0,-3855 -706,-6165 -5315,-6165 -5678,0 -5678,0 -5678,6165l0 12140c-4515,0 -4515,0 -4515,-3809l0 -17950c3454,0 3454,0 3454,3065 755,-1509 3065,-3370 7980,-3370 7128,0 8596,4160 8596,10325l0 11740c-4523,0 -4523,0 -4523,-3809zm16522 -14269l-2129 0 0 11785c0,1423 400,2624 2129,2624 3454,0 3454,0 3454,3846 -7176,400 -10192,-1279 -10192,-6470l0 -11737 -2921 0 49 -2710c3235,0 2873,-87 2873,-2654l0 -3903 4523 0 0 5496 5897 0c0,3722 0,3722 -3681,3722zm16168 -222c-6154,0 -6154,0 -6154,7406 0,4160 1106,7444 6108,7444 6211,0 6211,0 6211,-7444 0,-4036 -1020,-7406 -6165,-7406zm-46 18570c-8588,0 -10766,-5361 -10766,-11163 0,-5764 2264,-11126 10812,-11126 8467,0 10774,5361 10774,11126 0,5848 -2307,11163 -10820,11163zm29949 -4079l0 -8331c0,-3855 -706,-6165 -5315,-6165 -5678,0 -5678,0 -5678,6165l0 12140c-4515,0 -4515,0 -4515,-3809l0 -17950c3454,0 3454,0 3454,3065 755,-1509 3065,-3370 7980,-3370 7128,0 8596,4160 8596,10325l0 11740c-4523,0 -4523,0 -4523,-3809zm8591 -89l0 -17902c4523,0 4523,0 4523,3722l0 18083c-4523,0 -4523,0 -4523,-3903zm2213 -20382c-2031,0 -3360,-536 -3360,-2748 0,-2215 1328,-2748 3360,-2748 1956,0 3235,533 3235,2748 0,2213 -1279,2748 -3235,2748zm21580 14225l-6154 0c-5012,0 -5058,0 -5058,3635 0,1994 1688,3149 4874,3149 6338,0 6338,0 6338,-6078l0 -706zm1069 6784c-1020,1680 -3949,3492 -8464,3492 -4696,0 -8513,-2031 -8513,-6603 0,-4025 2616,-7214 9037,-7214l6871 0c0,-3243 -1812,-4436 -5983,-4436l-4428 0c-3368,0 -3368,0 -3368,-3673l7663 0c8596,0 10590,3538 10590,9302l0 12405c-3406,0 -3406,0 -3406,-3273zm22762 -538l0 -8331c0,-3855 -706,-6165 -5315,-6165 -5678,0 -5678,0 -5678,6165l0 12140c-4512,0 -4512,0 -4512,-3809l0 -17950c3454,0 3454,0 3454,3065 752,-1509 3062,-3370 7977,-3370 7128,0 8596,4160 8596,10325l0 11740c-4523,0 -4523,0 -4523,-3809zm18559 -14490c-6154,0 -6154,0 -6154,7406 0,4160 1106,7444 6108,7444 6211,0 6211,0 6211,-7444 0,-4036 -1020,-7406 -6165,-7406zm-46 18570c-8588,0 -10766,-5361 -10766,-11163 0,-5764 2261,-11126 10812,-11126 8466,0 10774,5361 10774,11126 0,5848 -2307,11163 -10820,11163z"/>
   <path class="fil2" d="M142893 43284l0 143218c0,105323 65498,114799 131357,145963l0 0c12125,5746 13018,5754 25128,0l0 0c65866,-31164 131354,-40632 131354,-145963l0 0 0 -148540c0,-5255 -4285,-7558 -5855,-8328l0 0c-16501,-8141 -66788,-29634 -137973,-29634l0 0 -85 0 -93 0c-68846,0 -118147,20099 -136233,28797l0 0c-3187,1626 -7598,3909 -7598,14487z"/>
   <path class="fil3" d="M341214 264829c-67,-1815 -1476,-3321 -3329,-3459 -1985,-133 -3696,1362 -3838,3345 -56,829 171,1591 602,2230 -1796,-866 -2979,-2755 -2830,-4861 189,-2766 2585,-4842 5351,-4656 2771,197 4850,2588 4653,5351 -56,751 -272,1436 -610,2049zm12917 9636l-6601 -5538c2953,-8405 453,-17149 -6119,-20240 -7147,-3366 -16387,1220 -20626,10247 -104,226 -189,461 -293,685 -27,37 -56,85 -83,104 -9524,480 -24501,-7989 -29370,-24453 -14516,38084 22516,52478 36616,48070 -6870,4512 -23398,8781 -34860,-5623l-21490 10399c4672,7107 10558,11790 17919,15089l9983 -9927c23870,9964 39976,-4213 46340,-18897l8245 885c818,83 967,-274 338,-799z"/>
   <path class="fil3" d="M315514 118019c-67,-1804 -1476,-3318 -3328,-3459 -1985,-133 -3704,1362 -3838,3347 -64,826 171,1588 594,2228 -1788,-866 -2971,-2745 -2822,-4861 189,-2763 2588,-4842 5351,-4653 2764,197 4840,2585 4642,5357 -45,743 -261,1431 -600,2041zm12917 9636l-6601 -5538c2942,-8405 442,-17149 -6129,-20240 -7134,-3366 -16376,1221 -20616,10239 -104,234 -197,469 -293,704 -27,29 -64,75 -83,104 -9524,469 -24501,-8000 -29370,-24461 -14516,38092 22505,52478 36619,48078 -6883,4504 -23401,8770 -34860,-5642l-21493 10407c4664,7107 10548,11790 17919,15089l9986 -9916c23870,9954 39974,-4221 46327,-18908l8256 885c807,93 967,-272 338,-800z"/>
   <path class="fil3" d="M396306 179104c-226,-2169 -2031,-3853 -4251,-3872 -2388,0 -4323,1927 -4333,4315 0,989 338,1881 893,2622 -2199,-901 -3768,-3065 -3768,-5602 8,-3318 2708,-5999 6033,-5999 3320,11 5999,2708 5991,6036 0,893 -208,1740 -565,2500zm16235 10492l-8347 -6100c2857,-10295 -847,-20552 -8959,-23720 -8810,-3448 -19488,2774 -23832,13914 -123,282 -197,565 -301,855 -37,40 -67,96 -93,123 -11358,1335 -29954,-7595 -37106,-26897 -14300,46743 31145,60979 47681,54575 -7867,5943 -27291,12381 -42154,-3931l-24885 14169c6159,8131 13564,13255 22646,16610l11142 -12672c29370,9993 47505,-8264 53925,-26343l9946 394c970,37 1130,-402 338,-978z"/>
   <path class="fil3" d="M280947 196066c-48,-1572 -1279,-2897 -2897,-3009 -1719,-115 -3225,1183 -3337,2913 -48,714 152,1383 528,1937 -1570,-762 -2596,-2398 -2465,-4232 171,-2406 2249,-4219 4656,-4051 2406,171 4221,2246 4043,4664 -40,640 -237,1239 -528,1778zm11235 8384l-5735 -4821c2566,-7315 384,-14921 -5330,-17618 -6215,-2915 -14255,1061 -17948,8920 -93,197 -160,405 -253,602 -29,37 -56,67 -75,93 -8293,416 -21322,-6955 -25562,-21293 -12626,33149 19600,45679 31870,41845 -5980,3920 -20363,7635 -30337,-4898l-18700 9045c4061,6185 9183,10265 15576,13133l8698 -8629c20784,8658 34801,-3667 40339,-16453l7174 770c704,77 837,-235 283,-696z"/>
   <path class="fil3" d="M403808 111745c-48,-1212 -989,-2217 -2228,-2313 -1317,-83 -2473,914 -2558,2238 -37,546 115,1063 394,1495 -1194,-584 -1983,-1842 -1879,-3254 123,-1841 1719,-3233 3563,-3110 1852,131 3243,1737 3113,3582 -40,498 -181,949 -405,1362zm8629 6441l-4408 -3704c1964,-5612 290,-11451 -4091,-13519 -4775,-2246 -10934,818 -13772,6844 -75,152 -131,312 -197,461 -19,29 -48,56 -56,75 -6367,312 -16360,-5349 -19622,-16349 -9692,25450 15044,35057 24464,32126 -4600,3009 -15627,5858 -23278,-3771l-14367 6947c3123,4757 7051,7870 11968,10089l6676 -6630c15944,6649 26689,-2820 30948,-12624l5511 581c536,67 640,-179 224,-525z"/>
   <path class="fil4" d="M235030 57104c-1098,4664 -1015,8387 -141,9607 189,256 338,312 538,312 450,0 704,-171 930,-584 845,-1551 365,-5527 -1327,-9335zm13474 338c-2164,4917 -2915,9223 -2145,10540 85,160 171,234 434,234 234,0 536,-56 855,-480 1194,-1522 1484,-5687 855,-10295zm-20816 -7464c-205,0 -413,19 -621,48 -778,131 -2143,2894 -1682,8704 386,5031 2001,9993 4400,13634 2953,4456 6844,6713 11592,6713 6119,0 10273,-4325 12682,-7965 2838,-4296 4925,-10209 5594,-15811 696,-5839 -416,-8810 -1420,-9053 -131,-29 -272,-48 -413,-48 -1937,0 -4805,2886 -7382,7390 1279,5631 1562,12805 -741,15766 -762,959 -1769,1476 -2905,1476 -1149,0 -2116,-536 -2681,-1524 -1945,-3337 997,-11273 3563,-16093 -1484,-5895 -3648,-8584 -5077,-8584 -2087,0 -4682,3534 -6524,8874 2652,4418 4344,10897 2558,14185 -669,1252 -1807,1948 -3206,1948 -1074,0 -1985,-480 -2644,-1391 -1945,-2718 -1194,-9063 442,-14375 -1138,-1647 -3139,-3893 -5538,-3893zm13690 31721c-5586,0 -10332,-2726 -13756,-7888 -2630,-3995 -4400,-9410 -4832,-14873 -384,-4954 394,-10934 3883,-11488 330,-67 669,-85 1015,-85 2295,0 4570,1252 6582,3592 1436,-3563 4296,-8952 8328,-8952 3507,0 5708,4533 6902,8152 2068,-3139 5077,-6572 8320,-6572 346,0 695,37 1034,123 2913,714 4184,5162 3374,11902 -714,5988 -2961,12336 -6017,16959 -3947,5969 -9079,9130 -14833,9130z"/>
   <path class="fil4" d="M205751 108145l0 -3928 2886 0c3760,0 5866,-770 5866,-2971 0,-677 -187,-1439 -477,-2303l-4805 -12363 -18860 0 -4333 11883c-376,959 -565,1919 -565,2596 0,2199 1636,3158 4712,3158l4813 0 0 3928 -25298 0 0 -3928 1730 0c4323,0 6542,-1825 8461,-7182l16160 -44384 -1532 -4024 13746 0 19526 50514c1447,3827 3846,5077 8179,5077l0 3928 -30207 0zm-6252 -46479l-7211 19648 14809 0 -7598 -19648z"/>
   <line class="fil5" x1="286658" y1="11" x2="286658" y2= "11" />
  </g>
 </g>
</svg>
