<?xml version="1.0" encoding="UTF-8" standalone="no"?>
<!-- Created with Inkscape (http://www.inkscape.org/) -->

<svg
   xmlns:dc="http://purl.org/dc/elements/1.1/"
   xmlns:cc="http://creativecommons.org/ns#"
   xmlns:rdf="http://www.w3.org/1999/02/22-rdf-syntax-ns#"
   xmlns:svg="http://www.w3.org/2000/svg"
   xmlns="http://www.w3.org/2000/svg"
   xmlns:sodipodi="http://sodipodi.sourceforge.net/DTD/sodipodi-0.dtd"
   xmlns:inkscape="http://www.inkscape.org/namespaces/inkscape"
   width="366.04138"
   height="57.495861"
   viewBox="0 0 96.848449 15.212446"
   version="1.1"
   id="svg11808"
   inkscape:version="0.92.0 r15299"
   sodipodi:docname="safariland.svg">
  <defs
     id="defs11802" />
  <sodipodi:namedview
     id="base"
     pagecolor="#ffffff"
     bordercolor="#666666"
     borderopacity="1.0"
     inkscape:pageopacity="0.0"
     inkscape:pageshadow="2"
     inkscape:zoom="2.464006"
     inkscape:cx="182.02066"
     inkscape:cy="27.747933"
     inkscape:document-units="mm"
     inkscape:current-layer="layer1"
     showgrid="false"
     fit-margin-top="0"
     fit-margin-left="0"
     fit-margin-right="0"
     fit-margin-bottom="0"
     units="px"
     inkscape:window-width="1280"
     inkscape:window-height="744"
     inkscape:window-x="-4"
     inkscape:window-y="-4"
     inkscape:window-maximized="1" />
  <metadata
     id="metadata11805">
    <rdf:RDF>
      <cc:Work
         rdf:about="">
        <dc:format>image/svg+xml</dc:format>
        <dc:type
           rdf:resource="http://purl.org/dc/dcmitype/StillImage" />
        <dc:title></dc:title>
      </cc:Work>
    </rdf:RDF>
  </metadata>
  <g
     inkscape:label="Layer 1"
     inkscape:groupmode="layer"
     id="layer1"
     transform="translate(-286.72727,-284.59349)">
    <g
       id="g11933"
       transform="translate(0.26458447,-0.26457588)">
      <path
         d="m 378.87812,292.45383 h -3.56834 v -5.71391 h 3.56834 c 1.88243,0 2.55094,1.53928 2.55094,2.8575 0,1.31742 -0.66851,2.85641 -2.55094,2.85641 m 0,-7.33118 h -5.18548 v 8.94831 h 5.18548 c 2.45428,0 4.16843,-1.83928 4.16843,-4.47354 0,-2.6344 -1.71415,-4.47477 -4.16843,-4.47477"
         style="fill:#231f20;fill-opacity:1;fill-rule:nonzero;stroke:none;stroke-width:0.03527778"
         id="path11822"
         inkscape:connector-curvature="0" />
      <path
         d="m 310.60715,294.07107 h 1.62003 v -3.06102 h 4.28142 v -1.62017 h -4.28142 v -2.64692 h 5.93852 v -1.62031 h -7.55855 v 8.94842"
         style="fill:#231f20;fill-opacity:1;fill-rule:nonzero;stroke:none;stroke-width:0.03527778"
         id="path11824"
         inkscape:connector-curvature="0" />
      <path
         d="m 345.16138,285.12265 h -1.62171 v 8.94842 h 6.3701 l 0.57962,-1.62179 h -5.32801 v -7.32663"
         style="fill:#231f20;fill-opacity:1;fill-rule:nonzero;stroke:none;stroke-width:0.03527778"
         id="path11826"
         inkscape:connector-curvature="0" />
      <path
         d="m 369.96943,291.9416 -6.07096,-6.81715 h -1.59738 v 8.94073 h 1.6182 v -6.57285 l 5.8367,6.57874 h 1.83127 v -8.94828 h -1.61783 v 6.81881"
         style="fill:#231f20;fill-opacity:1;fill-rule:nonzero;stroke:none;stroke-width:0.03527778"
         id="path11828"
         inkscape:connector-curvature="0" />
      <path
         d="m 339.49648,294.07107 h 1.62732 v -8.94828 h -1.62732 z"
         style="fill:#231f20;fill-opacity:1;fill-rule:nonzero;stroke:none;stroke-width:0.03527778"
         id="path11830"
         inkscape:connector-curvature="0" />
      <path
         d="m 330.07908,286.73798 h 4.12432 c 0.87101,0 1.58009,0.42432 1.58009,1.29551 0,0.87132 -0.70908,1.29575 -1.58009,1.29575 h -4.12432 z m 7.68314,7.33309 -3.16794,-3.14399 c 1.8923,-0.17237 2.80423,-1.59272 2.80423,-2.89359 0,-1.76181 -1.43334,-2.9107 -3.19511,-2.9107 h -5.73934 v 8.93646 h 1.61502 v -3.11478 h 2.4331 l 3.10057,3.1266 h 2.14947"
         style="fill:#231f20;fill-opacity:1;fill-rule:nonzero;stroke:none;stroke-width:0.03527778"
         id="path11832"
         inkscape:connector-curvature="0" />
      <path
         d="m 292.19381,290.04337 4.38383,0.5975 c 0.37468,0.0807 0.67289,0.30138 0.67289,0.67289 v 0.52299 c 0,0.3664 -0.26378,0.62946 -0.75516,0.62946 h -5.80418 v 1.60486 h 6.19375 c 1.1031,0 2.00558,-0.90248 2.00558,-2.00572 v -0.76909 c 0,-1.10959 -0.35966,-1.85939 -1.50273,-2.06139 l -4.38411,-0.59781 c -0.37426,-0.0806 -0.67275,-0.3011 -0.67275,-0.67247 v -0.499 c 0,-0.40446 0.32812,-0.7323 0.73269,-0.7323 h 5.26383 v -1.60486 h -5.74379 c -1.04552,0 -1.89247,0.84752 -1.89247,1.89262 v 1.01794 c 0,1.10959 0.35969,1.80206 1.50262,2.00438"
         style="fill:#231f20;fill-opacity:1;fill-rule:nonzero;stroke:none;stroke-width:0.03527778"
         id="path11834"
         inkscape:connector-curvature="0" />
      <path
         d="m 302.97696,290.21023 1.5295,-3.3759 1.51666,3.3759 z m 2.47318,-5.08744 h -1.88076 l -4.07265,8.94828 h 1.73137 l 1.01504,-2.24067 h 4.50773 l 1.00679,2.24067 h 1.73108 l -4.0386,-8.94828"
         style="fill:#231f20;fill-opacity:1;fill-rule:nonzero;stroke:none;stroke-width:0.03527778"
         id="path11836"
         inkscape:connector-curvature="0" />
      <path
         d="m 320.71191,290.21023 1.5295,-3.3759 1.51659,3.3759 z m 2.47318,-5.08744 h -1.8809 l -4.07254,8.94828 h 1.7314 l 1.01519,-2.24067 h 4.50754 l 1.00683,2.24067 h 1.73108 l -4.0386,-8.94828"
         style="fill:#231f20;fill-opacity:1;fill-rule:nonzero;stroke:none;stroke-width:0.03527778"
         id="path11838"
         inkscape:connector-curvature="0" />
      <path
         d="m 354.76823,290.21023 1.52929,-3.3759 1.51659,3.3759 z m 2.47297,-5.08744 h -1.88101 l -4.07247,8.94828 h 1.73179 l 1.01494,-2.24067 h 4.50744 l 1.00683,2.24067 h 1.73108 l -4.0386,-8.94828"
         style="fill:#231f20;fill-opacity:1;fill-rule:nonzero;stroke:none;stroke-width:0.03527778"
         id="path11840"
         inkscape:connector-curvature="0" />
      <path
         d="m 361.32813,297.68444 v 2.0672 h -0.46637 l -0.1524,-0.40694 c -0.2981,0.19527 -0.71049,0.46123 -1.47567,0.46123 -1.0093,0 -2.22991,-0.49361 -2.22991,-2.06182 0,-1.05269 0.63465,-2.0781 2.20839,-2.0781 0.90629,0 1.899,0.33627 2.0888,1.32927 h -0.78634 c -0.0924,-0.20064 -0.3041,-0.66752 -1.21038,-0.66752 -1.23719,0 -1.53,0.83578 -1.53,1.38369 0,0.93334 0.62936,1.41084 1.46473,1.41084 0.75989,0 1.18322,-0.26583 1.36737,-0.81939 h -1.38324 v -0.61846 h 2.10502"
         style="fill:#e5143c;fill-opacity:1;fill-rule:nonzero;stroke:none;stroke-width:0.03527778"
         id="path11842"
         inkscape:connector-curvature="0" />
      <path
         d="m 364.66435,297.51618 c 0.63006,0 0.95003,-0.0922 0.95003,-0.55907 0,-0.46109 -0.31997,-0.55314 -0.95003,-0.55314 h -1.48625 v 1.11221 z m -2.25707,-1.75273 h 2.37137 c 0.9331,0 1.60585,0.21167 1.60585,1.17754 0,0.72705 -0.5207,1.12861 -1.10138,1.16113 l 1.21003,1.60611 h -0.94932 l -1.14512,-1.55181 h -1.22061 v 1.55181 h -0.77082 v -3.94478"
         style="fill:#e5143c;fill-opacity:1;fill-rule:nonzero;stroke:none;stroke-width:0.03527778"
         id="path11844"
         inkscape:connector-curvature="0" />
      <path
         d="m 371.22955,297.72234 c 0,-0.94947 -0.67804,-1.39458 -1.57904,-1.39458 -0.90099,0 -1.57868,0.44511 -1.57868,1.39458 0,1.11772 0.84067,1.42158 1.57868,1.42158 0.73802,0 1.57904,-0.30386 1.57904,-1.42158 z m -1.57904,-2.05633 c 1.73638,0 2.3495,1.02004 2.3495,2.09974 0,0.81924 -0.48295,2.04018 -2.3495,2.04018 -1.86654,0 -2.3495,-1.22094 -2.3495,-2.04018 0,-1.0797 0.61313,-2.09974 2.3495,-2.09974"
         style="fill:#e5143c;fill-opacity:1;fill-rule:nonzero;stroke:none;stroke-width:0.03527778"
         id="path11846"
         inkscape:connector-curvature="0" />
      <path
         d="m 377.1922,298.01531 c 0,1.26972 -0.80857,1.79062 -2.09444,1.79062 -1.28623,0 -2.0948,-0.5209 -2.0948,-1.79062 v -2.25186 h 0.77082 v 2.19756 c 0,0.65113 0.23319,1.18291 1.32398,1.18291 1.09043,0 1.32397,-0.53178 1.32397,-1.18291 v -2.19756 h 0.77047 v 2.25186"
         style="fill:#e5143c;fill-opacity:1;fill-rule:nonzero;stroke:none;stroke-width:0.03527778"
         id="path11848"
         inkscape:connector-curvature="0" />
      <path
         d="m 380.81664,297.51618 c 0.43921,0 0.82444,-0.038 0.82444,-0.54791 0,-0.50477 -0.38523,-0.54267 -0.82444,-0.54267 h -1.59562 v 1.09058 z m -2.36608,-1.75273 h 2.19745 c 0.66745,0 1.76354,0 1.76354,1.21006 0,1.20468 -1.09609,1.20468 -1.76354,1.20468 h -1.42699 v 1.53004 h -0.77046 v -3.94478"
         style="fill:#e5143c;fill-opacity:1;fill-rule:nonzero;stroke:none;stroke-width:0.03527778"
         id="path11850"
         inkscape:connector-curvature="0" />
      <path
         d="m 287.13903,292.89367 v 1.09693 h -0.41176 v -2.67296 h 0.41176 v 1.09689 h 2.04184 v 0.47914 h -2.04184"
         style="fill:#e5143c;fill-opacity:1;fill-rule:nonzero;stroke:none;stroke-width:0.03527778"
         id="path11852"
         inkscape:connector-curvature="0" />
      <path
         d="m 286.72727,290.75647 v -0.47914 h 0.97193 v -1.64715 h -0.97193 v -0.47915 h 2.4536 v 0.47915 h -1.05627 v 1.64715 h 1.05627 v 0.47914 h -2.4536"
         style="fill:#e5143c;fill-opacity:1;fill-rule:nonzero;stroke:none;stroke-width:0.03527778"
         id="path11854"
         inkscape:connector-curvature="0" />
      <path
         d="m 286.72727,287.36691 v -2.20055 h 0.41176 v 1.72127 h 0.57051 v -1.48167 h 0.41162 v 1.48167 h 0.64809 v -1.76181 h 0.41162 v 2.24109 h -2.4536"
         style="fill:#e5143c;fill-opacity:1;fill-rule:nonzero;stroke:none;stroke-width:0.03527778"
         id="path11856"
         inkscape:connector-curvature="0" />
    </g>
  </g>
</svg>
