<svg version="1.1" id="Layer_1" xmlns="http://www.w3.org/2000/svg" xmlns:xlink="http://www.w3.org/1999/xlink" x="0px" y="0px" viewBox="0 0 317.8 169.2" style="enable-background:new 0 0 317.8 169.2;" xml:space="preserve">
<style type="text/css">
	.st0{fill:#CC0028;}
</style>
<g>
	<g>
		<polygon class="st0" points="0,168.3 0,120.6 30.3,120.6 30.3,128.9 9,128.9 9,140.3 24.3,140.3 24.3,148.6 9,148.6 9,168.3"/>
		<path class="st0" d="M40.3,120.4c3.1,0,5.5,2.4,5.5,5.5c0,3-2.4,5.5-5.5,5.5c-3,0-5.5-2.4-5.5-5.5    C34.8,122.9,37.2,120.4,40.3,120.4 M36,135.9h8.6v32.4H36V135.9z"/>
		<path class="st0" d="M64.8,168.2c-1.1,0.2-2.3,0.3-3,0.3c-6.3,0-9.8-4.6-9.8-13.1v-35.9h8.6v36.1c0,3.3,1.1,5.1,4.2,5.1V168.2z"/>
		<path class="st0" d="M98.7,151.4v16.9h-8.5v-19.2c0-3.5-1.4-6.3-4.7-6.3c-3.8,0-6.3,3.8-6.5,8.6v16.9h-8.6v-32.4h8.3v2.5    c2.3-2.2,5.1-3.4,8.7-3.4c4,0,7.2,1.9,9.2,4.9c3.1-3.5,7.1-4.9,10.7-4.9c6.9,0,11.4,5.7,11.4,13.1v20.2h-8.6v-19.2    c0-3.5-1.4-6.3-4.7-6.3C101.4,142.8,98.9,146.6,98.7,151.4"/>
		<path class="st0" d="M133.4,144.8c0,1,0.7,1.8,1.9,2.2l4.9,1.7c6.1,2.2,9.2,5.8,9.2,10.1c0,4.9-3.9,10.4-12.4,10.4    c-8.8,0-13.2-5.9-13.6-11.3h8.2c0.6,2.5,2.8,3.8,5.5,3.8c2.6,0,3.8-1.2,3.8-2.6c0-1.3-1.1-2.1-2.9-2.7l-5.1-1.8    c-4.7-1.6-7.8-5-7.8-9.4c0-5.7,4.9-10.2,11.6-10.2c6.5,0,10.3,4.2,11.9,8l-7.7,2.8c-0.6-1.3-1.8-3.4-4.4-3.4    C134.6,142.5,133.4,143.5,133.4,144.8"/>
		<path class="st0" d="M152.1,143.7v-7.8h5.3v-8.3l8.4-2.5v10.8h6.5v7.7h-6.5v10.3c0,4.2,1.2,6.7,4,6.7h2.4v7.6    c-1.7,0.3-3,0.3-3.8,0.3c-7,0-11.3-4.6-11.3-13.6v-11.2H152.1z"/>
		<path class="st0" d="M208.5,158.8c0,1.3,0.4,2.1,1.8,2.1v7.7c-4.8,0-7.2-1.3-8.6-4.2c-2.4,2.6-5.8,4.8-10.2,4.8    c-9.4,0-15.5-7.7-15.5-17.1c0-9.5,6.2-17,15.7-17c3.6,0,6.5,1.4,8.2,2.8v-2h8.7L208.5,158.8L208.5,158.8z M192.4,161.5    c4.7,0,7.5-4.1,7.5-9.6c0-5.4-2.9-9.2-7.5-9.2c-4.9,0-7.8,3.8-7.8,9.2C184.6,157.4,187.5,161.5,192.4,161.5"/>
		<path class="st0" d="M238.8,165.8c-2,1.8-5.1,3.4-9.4,3.4c-8.7,0-14.8-7.7-14.8-17.1c0-9.5,6.2-17,15-17c4.4,0,7,1.5,8.9,2.9    v-18.4h8.6v48.7h-8.3V165.8L238.8,165.8z M230.9,161.6c4.8,0,7.7-4.1,7.7-9.6s-2.9-9.2-7.6-9.2c-4.7,0-7.7,3.6-7.7,9.3    C223.3,157.6,226.2,161.6,230.9,161.6"/>
		<path class="st0" d="M283.7,157.2c-2.2,7.3-7.7,12-15.2,12c-8.6,0-16.2-6.3-16.2-17c0-10.2,7-17.1,16.2-17.1s15.2,6.7,15.2,16.6    v1.1l-22.2,2.8c0.7,3.4,3.2,6,7.3,6c3.4,0,5.4-1.8,6.5-4.3h8.4L283.7,157.2L283.7,157.2z M274.5,147.4c-0.7-3.3-3.1-4.6-6.2-4.6    c-3.9,0-6.4,2.2-7,6.3L274.5,147.4z"/>
		<path class="st0" d="M298,151.4v16.9h-8.6v-32.4h8.3v2.5c2.3-2.2,5.1-3.4,8.7-3.4c6.9,0,11.4,5.7,11.4,13.1v20.2h-8.6v-19.2    c0-3.5-1.4-6.3-4.7-6.3C300.7,142.8,298.2,146.6,298,151.4"/>
	</g>
	<path class="st0" d="M158.9-0.1c-28.2,0-51,22.9-51,51c0,28.2,22.9,51,51,51s51-22.8,51-51C209.9,22.8,187.1-0.1,158.9-0.1    M158.9,91.9c-22.6,0-40.9-18.4-40.9-41S136.4,10,158.9,10c22.6,0,40.9,18.4,40.9,40.9C199.8,73.5,181.5,91.9,158.9,91.9"/>
	<polygon class="st0" points="177.8,37.1 177.8,26.8 145.2,26.8 145.2,46.9 145.2,46.9 145.2,77.1 156.2,77.1 156.2,57.2    171.8,57.2 171.8,46.9 156.2,46.9 156.2,46.9 156.2,37.1"/>
</g>
</svg>