<svg xmlns="http://www.w3.org/2000/svg" aria-label="Signal" role="img" viewBox="0 0 512 512"><path d="m0 0H512V512H0" fill="#3b45fd"/><path d="M256 100A156 156 0 00124 339l-15 64 64-15a156 156 0 1083-288z" fill="#fff"/><path fill="none" stroke-dasharray="54.5,17" stroke="#fff" stroke-width="18" d="M403 147A183 183 0 0097 346l-18 76c0 3 0 6 3 8a9 9 0 008 3l76-18A183 183 0 00402 146M79 422c0 3 0 6 3 8a9 9 0 008 3"/><metadata>MIT License

SuperTiny Icons Copyright ⓒ 2017 Terence Eden

Permission is hereby granted, free of charge, to any person obtaining a copy
of this software and associated documentation files (the "Software"), to deal
in the Software without restriction, including without limitation the rights
to use, copy, modify, merge, publish, distribute, sublicense, and/or sell
copies of the Software, and to permit persons to whom the Software is
furnished to do so, subject to the following conditions:

The above copyright notice and this permission notice shall be included in all
copies or substantial portions of the Software.

THE SOFTWARE IS PROVIDED "AS IS", WITHOUT WARRANTY OF ANY KIND, EXPRESS OR
IMPLIED, INCLUDING BUT NOT LIMITED TO THE WARRANTIES OF MERCHANTABILITY,
FITNESS FOR A PARTICULAR PURPOSE AND NONINFRINGEMENT. IN NO EVENT SHALL THE
AUTHORS OR COPYRIGHT HOLDERS BE LIABLE FOR ANY CLAIM, DAMAGES OR OTHER
LIABILITY, WHETHER IN AN ACTION OF CONTRACT, TORT OR OTHERWISE, ARISING FROM,
OUT OF OR IN CONNECTION WITH THE SOFTWARE OR THE USE OR OTHER DEALINGS IN THE
SOFTWARE.

The Nu Validator is Copyright ⓒ 2007-2016 Mozilla Foundation
https://github.com/validator/validator</metadata></svg>